<svg height="512" viewBox="0 0 64 64" width="512" xmlns="http://www.w3.org/2000/svg"><g id="Bag"><path d="m3 43v4a2.006 2.006 0 0 0 2 2h54a2.006 2.006 0 0 0 2-2v-4z" fill="#d1d3d4"/><path d="m61 13v30h-58v-30a2.006 2.006 0 0 1 2-2h54a2.006 2.006 0 0 1 2 2z" fill="#a7a9ac"/><path d="m6 14h52v26h-52z" fill="#414042"/><path d="m31 40h27v-26c0 14.371-12.076 26-27 26z" fill="#3a3a3b"/><path d="m26 49h12v6h-12z" fill="#a7a9ac"/><path d="m26 49h12v2h-12z" fill="#808285"/><path d="m21 55a2 2 0 0 0 -2 2v4h26v-4a2 2 0 0 0 -2-2z" fill="#d1d3d4"/><path d="m16 37h32a2.006 2.006 0 0 0 2-2v-14h-36v14a2.006 2.006 0 0 0 2 2z" fill="#c49a6c"/><path d="m12 21h40v-10a2.006 2.006 0 0 0 -2-2h-36a2.006 2.006 0 0 0 -2 2z" fill="#8b5e3c"/><circle cx="32" cy="21" fill="#ffcd00" r="3"/><g fill="#231f20"><path d="m59 10h-6.184a3 3 0 0 0 -2.816-2h-8v-1a5.006 5.006 0 0 0 -5-5h-10a5.006 5.006 0 0 0 -5 5v1h-8a3 3 0 0 0 -2.816 2h-6.184a3 3 0 0 0 -3 3v34a3 3 0 0 0 3 3h20v4h-4a3 3 0 0 0 -3 3v4a1 1 0 0 0 1 1h26a1 1 0 0 0 1-1v-4a3 3 0 0 0 -3-3h-4v-4h20a3 3 0 0 0 3-3v-34a3 3 0 0 0 -3-3zm-30.858 12a3.981 3.981 0 0 0 7.716 0h13.142v13a1 1 0 0 1 -1 1h-32a1 1 0 0 1 -1-1v-13zm1.858-1a2 2 0 1 1 2 2 2 2 0 0 1 -2-2zm-18 1h1v13a3 3 0 0 0 3 3h32a3 3 0 0 0 3-3v-13h1a1 1 0 0 0 1-1v-6h4v24h-50v-24h4v6a1 1 0 0 0 1 1zm12-15a3 3 0 0 1 3-3h10a3 3 0 0 1 3 3v1h-16zm-11 4a1 1 0 0 1 1-1h36a1 1 0 0 1 1 1v9h-15.142a3.981 3.981 0 0 0 -7.716 0h-15.142zm-8 1h6v1h-5a1 1 0 0 0 -1 1v26a1 1 0 0 0 1 1h52a1 1 0 0 0 1-1v-26a1 1 0 0 0 -1-1h-5v-1h6a1 1 0 0 1 1 1v29h-56v-29a1 1 0 0 1 1-1zm38 44a1 1 0 0 1 1 1v3h-24v-3a1 1 0 0 1 1-1zm-6-2h-10v-4h10zm22-6h-54a1 1 0 0 1 -1-1v-3h56v3a1 1 0 0 1 -1 1z"/><path d="m55 45h-2a1 1 0 0 0 0 2h2a1 1 0 0 0 0-2z"/></g></g></svg>